<?xml version="1.0" standalone="no"?>
<!DOCTYPE svg PUBLIC "-//W3C//DTD SVG 20010904//EN"
        "http://www.w3.org/TR/2001/REC-SVG-20010904/DTD/svg10.dtd">
<svg version="1.0" xmlns="http://www.w3.org/2000/svg"
     width="700.000000pt" height="700.000000pt" viewBox="0 0 700.000000 700.000000"
     preserveAspectRatio="xMidYMid meet">
    <metadata>
        Created by potrace 1.11, written by Peter Selinger 2001-2013
    </metadata>
    <g transform="translate(0.000000,700.000000) scale(0.100000,-0.100000)"
       fill="#000000" stroke="none">
        <path d="M3269 6996 c-2 -2 -38 -6 -79 -10 -41 -3 -91 -8 -110 -10 -19 -3 -57
-8 -85 -11 -27 -3 -57 -7 -65 -9 -8 -3 -33 -7 -54 -11 -168 -24 -543 -133
-693 -201 -17 -8 -33 -14 -36 -14 -11 0 -334 -160 -382 -190 -27 -16 -58 -33
-67 -36 -10 -4 -18 -10 -18 -15 0 -5 -5 -9 -11 -9 -17 0 -230 -147 -344 -238
-595 -474 -1019 -1126 -1210 -1857 -19 -71 -42 -170 -51 -220 -9 -49 -17 -97
-19 -105 -2 -9 -6 -43 -10 -75 -4 -33 -9 -69 -11 -80 -18 -96 -25 -504 -12
-685 10 -132 29 -265 63 -440 20 -102 99 -387 124 -445 5 -11 14 -36 21 -55
15 -44 18 -50 81 -195 352 -810 1034 -1476 1864 -1820 129 -54 370 -135 445
-150 8 -2 53 -12 100 -24 110 -26 235 -49 313 -57 34 -3 65 -8 68 -9 29 -18
532 -26 709 -12 105 9 111 9 290 38 269 44 539 125 809 242 120 51 307 146
353 178 14 11 29 19 33 19 13 0 268 174 367 251 147 114 303 259 433 401 93
102 111 123 195 233 331 434 546 913 654 1456 14 70 28 155 32 190 3 35 8 67
10 70 24 42 23 715 -1 834 -2 11 -7 40 -10 65 -3 25 -7 56 -10 70 -3 14 -8 41
-11 60 -11 72 -56 268 -80 350 -168 568 -468 1080 -874 1488 -228 229 -432
389 -715 559 -100 61 -405 213 -425 213 -6 0 -18 4 -28 9 -140 74 -583 196
-822 226 -8 1 -39 5 -68 9 -30 4 -75 10 -100 12 -56 6 -558 15 -563 10z m181
-1171 c62 -13 113 -57 150 -126 19 -36 25 -85 35 -274 3 -55 7 -136 10 -180 9
-139 15 -247 21 -355 3 -58 7 -134 9 -170 3 -36 7 -114 10 -175 3 -60 7 -137
10 -170 2 -33 7 -105 10 -160 3 -55 8 -140 11 -190 9 -157 15 -206 36 -274 42
-136 108 -238 263 -405 6 -6 37 -42 70 -81 33 -38 109 -126 169 -195 138 -159
149 -171 221 -255 33 -39 62 -72 65 -75 3 -3 32 -36 65 -75 33 -38 66 -76 73
-84 56 -58 152 -181 152 -194 0 -9 4 -18 8 -21 5 -3 10 -32 11 -65 3 -87 -22
-136 -116 -228 -89 -87 -137 -112 -209 -113 -85 0 -114 16 -254 141 -36 31
-164 144 -285 250 -121 105 -249 217 -285 249 -36 31 -157 137 -270 236 -113
98 -207 181 -210 184 -3 3 -39 34 -80 70 -105 91 -132 119 -166 176 -45 71
-83 205 -78 269 1 11 5 72 8 135 4 63 9 142 11 175 2 33 7 107 10 165 7 108 9
141 20 340 3 63 8 144 10 180 2 36 7 110 10 165 3 55 7 127 10 160 3 33 7 107
10 165 3 58 7 139 10 180 7 113 14 224 20 335 7 124 19 164 63 215 41 48 79
70 141 79 58 8 185 6 231 -4z"/>
    </g>
</svg>
