<?xml version="1.0" encoding="UTF-8"?>
<!DOCTYPE svg PUBLIC "-//W3C//DTD SVG 1.1//EN" "http://www.w3.org/Graphics/SVG/1.1/DTD/svg11.dtd">
<!-- Creator: CorelDRAW X7 -->
<svg xmlns="http://www.w3.org/2000/svg" xml:space="preserve" width="43.3492mm" height="43.3492mm" version="1.1" style="shape-rendering:geometricPrecision; text-rendering:geometricPrecision; image-rendering:optimizeQuality; fill-rule:evenodd; clip-rule:evenodd"
viewBox="0 0 4335 4335"
 enable-background="new 0 0 24 24">
 <defs>
  <style type="text/css">
   <![CDATA[
    .fil0 {fill:#FEFEFE}
   ]]>
  </style>
 </defs>
 <g id="Ebene_x0020_1">
  <metadata id="CorelCorpID_0Corel-Layer"/>
  <g id="_2347939367392">
   <g>
    <path class="fil0" d="M2167 -1c-1196,0 -2167,971 -2167,2168 0,1198 971,2168 2167,2168 1198,0 2168,-970 2168,-2168 0,-1197 -970,-2168 -2168,-2168zm798 3019l-64 63c-52,53 -141,56 -196,6l-817 -715c-56,-50 -98,-151 -94,-226l76 -1288c4,-75 68,-136 142,-136l90 0c74,0 138,61 142,135l62 1072c3,75 47,181 96,237l568 655c50,56 47,145 -5,197z"/>
   </g>
  </g>
 </g>
</svg>
